<mxfile host="app.diagrams.net" modified="2024-06-24T11:43:12.828Z" agent="Mozilla/5.0 (Macintosh; Intel Mac OS X 10_15_7) AppleWebKit/537.36 (KHTML, like Gecko) Chrome/126.0.0.0 Safari/537.36" version="24.6.2" etag="qssaLMOMsg102UA9hg21" type="github">
  <diagram name="第 1 页" id="uvsXoB5eZvWj9Hvgmt2m">
    <mxGraphModel>
      <root>
        <mxCell id="0" />
        <mxCell id="1" parent="0" />
      </root>
    </mxGraphModel>
  </diagram>
</mxfile>
